<svg width="2104" height="2230" viewBox="0 0 2104 2230" fill="none" xmlns="http://www.w3.org/2000/svg">
<path fill-rule="evenodd" clip-rule="evenodd" d="M1252.27 294.8L522.797 0.0720215L227.453 731.074L864.212 988.341C915.419 1009.03 973.702 984.29 994.391 933.083L1252.27 294.8ZM246.235 1737.84C44.7956 1656.45 -52.2183 1426.41 29.1685 1224.97C110.555 1023.53 340.139 925.448 541.579 1006.83C743.018 1088.22 840.032 1318.26 758.646 1519.7C677.259 1721.14 447.675 1819.22 246.235 1737.84ZM2103.65 638.776L1374.17 344.048L1116.29 982.332C1095.6 1033.54 1120.34 1091.82 1171.54 1112.51L1808.3 1369.78L2103.65 638.776ZM731.343 1935.1L1460.82 2229.82L1756.16 1498.82L1119.41 1241.55C1068.2 1220.87 1009.92 1245.61 989.227 1296.81L731.343 1935.1Z" fill="url(#paint0_linear_0_516)"/>
<defs>
<linearGradient id="paint0_linear_0_516" x1="-589.04" y1="476.244" x2="363.284" y2="2699.87" gradientUnits="userSpaceOnUse">
<stop stop-color="#0FFF00"/>
<stop offset="1" stop-color="#052E62"/>
</linearGradient>
</defs>
</svg>
